<?xml version="1.0" encoding="utf-8"?>
<svg version="1.1" baseProfile="tiny" id="enlightened_1_"
	 xmlns="http://www.w3.org/2000/svg" xmlns:xlink="http://www.w3.org/1999/xlink" x="0px" y="0px" width="720px" height="960px"
	 viewBox="0 0 720 960" overflow="inherit" xml:space="preserve">
<switch>
	<g>
		<g>
			<g>
				<path d="M412.026,249.433c-26.797-8.847-55.611-17.663-84.758-22.221L326,227.014V22.836L455.259,128.5l-21.474,62.326
					l-12.928-8.619l6.51-38.059L364,96.504l0.002,110.204c15.367,5.52,33.608,14.503,54.238,26.713l1.082,0.64l-5.926,15.823
					L412.026,249.433z"/>
				<path fill="#80F852" d="M327.5,26l126,103L433,188.5l-10.5-7l6.5-38l-66.5-50l0.002,114.267
					c17.873,6.295,37.606,16.667,54.975,26.946l-4.979,13.296C387.749,239.838,358,230.5,327.5,225.73V26 M324.5,19.673V26v199.73
					v2.567l2.537,0.396c29.04,4.542,57.784,13.336,84.52,22.164l2.738,0.904l1.012-2.701l4.979-13.296l0.882-2.354l-2.163-1.28
					c-20.27-11.997-38.257-20.896-53.503-26.475L365.5,99.509l60.234,45.289l-6.191,36.196l-0.328,1.921l1.621,1.081l10.5,7
					l3.234,2.156l1.266-3.675l20.5-59.5l0.682-1.977l-1.619-1.323l-126-103L324.5,19.673L324.5,19.673z"/>
			</g>
			<g>
				<path d="M547.259,319.694c-25.989-19.739-81.686-56.073-82.245-56.438l-1.233-0.804l49.361-78.874l115.319,96.328l-1.892,1.066
					c-0.379,0.214-38.354,21.57-77.8,38.9l-0.808,0.354L547.259,319.694z M497.058,253.353c6.387,4.885,37.774,28.895,53.299,40.691
					c20.159-9.29,37.283-17.674,43.059-20.522l-70.118-57.341L497.058,253.353z"/>
				<path fill="#80F852" d="M513.5,185.833l112.333,93.833c0,0-37.833,21.333-77.667,38.833c-26.333-20-82.333-56.5-82.333-56.5
					L513.5,185.833 M550.166,295.783c25.443-11.708,46-21.95,46-21.95L523,214l-28,39.667
					C495,253.667,533.05,282.783,550.166,295.783 M512.782,181.325l-1.825,2.917l-47.667,76.167l-1.562,2.497l2.468,1.608
					c0.559,0.365,56.211,36.67,82.156,56.376l1.405,1.067l1.616-0.71c39.514-17.359,77.554-38.752,77.934-38.966l3.781-2.132
					l-3.332-2.783l-112.333-93.833L512.782,181.325L512.782,181.325z M499.116,253.039l24.478-34.678l67.065,54.845
					c-7.063,3.468-22.355,10.904-40.112,19.099C535.598,280.941,507.334,259.325,499.116,253.039L499.116,253.039z"/>
			</g>
			<g>
				<path d="M461.084,446.792l1.293-0.638c23.485-11.585,35.604-19.591,51.868-34.269l0.696-0.628l79.222,31.998l-76.087,131.541
					L461.084,446.792z M528.602,522.895l37.262-63.102l-38.452-17.703c-7.179,8.414-16.623,16.337-26.815,22.496L528.602,522.895z"
					/>
				<path fill="#80F852" d="M515.25,413L592,444l-73.75,127.5l-55.209-124C487.875,435.25,499.875,426.875,515.25,413
					 M528.465,526.075L568,459.125l-41-18.875c-7.375,8.875-17.5,17.375-28.35,23.75L528.465,526.075 M514.634,409.516l-1.394,1.257
					c-14.274,12.881-25.625,21.26-51.526,34.037l-2.587,1.276l1.174,2.635l55.209,124l2.392,5.373l2.945-5.092l73.75-127.5
					l1.729-2.99l-3.203-1.294l-76.75-31L514.634,409.516L514.634,409.516z M502.535,465.158c9.533-5.919,18.37-13.342,25.273-21.233
					l35.919,16.536l-34.99,59.253L502.535,465.158L502.535,465.158z"/>
			</g>
			<g>
				<path d="M337,481.367l1.379-0.112c31.06-2.52,54.349-7.132,77.873-15.419l1.516-0.535l9.984,36.16l-0.992,0.583
					c-19.458,11.424-42.739,13.711-48.76,14.123v295.601l73.902-118.291l-25.613-115.009l18.924-10.19l36.151,136.459L337,940.573
					V481.367z"/>
				<path fill="#80F852" d="M416.75,467.25l9.25,33.5c-22,12.917-49.5,14-49.5,14V817l77-123.25L428,579.25l16.25-8.75l35.5,134
					L338.5,935.25v-452.5C370.334,480.167,393.334,475.5,416.75,467.25 M418.786,463.352l-3.033,1.068
					c-23.396,8.243-46.571,12.83-77.496,15.339l-2.757,0.224v2.767v452.5v10.647l5.559-9.081l141.25-230.75l0.67-1.095l-0.328-1.24
					l-35.5-134l-0.975-3.676l-3.348,1.803l-16.25,8.75l-2,1.077l0.493,2.217l25.233,113.301L379.5,806.536v-288.98
					c7.762-0.653,29.574-3.389,48.019-14.219l1.986-1.166l-0.613-2.22l-9.25-33.5L418.786,463.352L418.786,463.352z"/>
			</g>
			<g>
				<path d="M150.994,388.294c-26.479-6.162-57.711-28.015-58.024-28.234l-3.694-2.602l4.517-0.124
					c0.239-0.006,23.64-0.653,29.452-1.295c10.493-5.048,18.498-9.684,27.755-15.045c8.949-5.183,19.092-11.057,33.812-18.66
					c5.521-2.852,10.892-5.762,16.086-8.577c30.659-16.614,59.617-32.308,112.953-32.308c3.638,0,7.408,0.074,11.207,0.219
					c64.49,2.462,87.303,14.136,118.878,30.293c2.777,1.421,5.624,2.878,8.574,4.366c23.055,11.633,46.696,24.995,68.398,38.657
					c1.292-0.039,3.597-0.059,6.869-0.059c6.305,0,14.158,0.074,14.236,0.074l3.097,0.029l-1.942,2.412
					c-0.431,0.535-10.811,13.227-32.557,22.929l-0.547,0.244l-0.565-0.2c-9.066-3.209-16.979-6.902-27.93-12.014
					c-11.894-5.551-26.694-12.459-49.638-21.845c-42.366-17.332-78.68-20.032-108.616-20.388c-2.087-0.025-4.3-0.044-6.631-0.044
					c-24.145,0-60.47,2.147-97.005,20.714c-18.042,9.169-30.882,17.909-42.211,25.62c-9.087,6.186-16.936,11.528-25.474,15.722
					l-0.48,0.236L150.994,388.294z"/>
				<path fill="#80F852" d="M313.85,282.95c3.597,0,7.318,0.071,11.15,0.217c69.833,2.667,90.5,16.167,126.834,34.5
					c34.471,17.393,60.999,34,68.666,38.833c1.277-0.056,4.092-0.074,7.277-0.074c6.37,0,14.223,0.074,14.223,0.074
					s-10.334,12.833-32,22.5c-18.833-6.667-33.5-15.833-77.5-33.833s-81.167-20.167-109.167-20.5
					c-2.093-0.025-4.312-0.044-6.649-0.044c-24.095,0-60.614,2.038-97.684,20.877c-32.626,16.581-48.667,32-67.667,41.333
					c-26.5-6.167-57.5-28-57.5-28s24.333-0.667,29.833-1.333c20.833-10,31.763-18.302,61.833-33.833
					C223.621,303.977,251.903,282.95,313.85,282.95 M313.85,279.95c-53.716,0-82.836,15.781-113.667,32.488
					c-5.188,2.812-10.552,5.718-16.06,8.563c-14.752,7.62-24.912,13.504-33.875,18.695c-9.162,5.306-17.093,9.899-27.42,14.879
					c-6.123,0.625-28.84,1.253-29.076,1.26l-9.034,0.248l7.389,5.204c1.285,0.905,31.786,22.242,58.547,28.469l1.042,0.243
					l0.96-0.472c8.633-4.241,16.522-9.611,25.656-15.829c11.292-7.686,24.089-16.397,42.047-25.523
					c36.248-18.421,72.334-20.551,96.325-20.551c1.995,0,4.097,0.014,6.614,0.044c29.794,0.354,65.933,3.04,108.066,20.276
					c22.909,9.372,37.692,16.272,49.57,21.816c10.989,5.129,18.93,8.834,28.064,12.068l1.129,0.399l1.095-0.488
					c22.072-9.848,32.674-22.811,33.114-23.358l3.884-4.823l-6.192-0.059c-0.079,0-7.939-0.074-14.251-0.074
					c-2.969,0-5.099,0.016-6.455,0.047c-21.636-13.603-45.177-26.899-68.137-38.484c-2.947-1.487-5.791-2.942-8.566-4.363
					c-31.747-16.245-54.684-27.981-119.505-30.457C321.297,280.023,317.507,279.95,313.85,279.95L313.85,279.95z"/>
			</g>
			<g>
				<path d="M330.745,432.5c-72.857-0.26-122.829-32.921-123.325-33.251l-1.812-1.204l1.77-1.265
					c0.243-0.174,24.544-17.511,44.872-29.246l1.026-0.592l0.814,0.86c0.304,0.321,30.81,32.082,70.147,32.082
					c0.899,0,1.799-0.016,2.708-0.05c41.9-1.543,71.832-32.879,72.129-33.195l0.729-0.775l56.285,24.957l-2.01,1.537
					c-0.525,0.401-53.298,40.143-122.676,40.143L330.745,432.5z"/>
				<path fill="#80F852" d="M400.167,367.667l53,23.5c0,0-52.092,39.834-121.765,39.834c-0.218,0-0.435,0-0.652-0.001
					c-73.25-0.262-122.5-33-122.5-33s24.25-17.333,44.75-29.167c0,0,30.761,32.551,71.237,32.551c0.917,0,1.836-0.017,2.763-0.051
					C370,399.75,400.167,367.667,400.167,367.667 M399.438,364.062l-1.456,1.548l0,0c-0.294,0.312-29.883,31.208-71.093,32.725
					c-0.879,0.032-1.771,0.049-2.652,0.049c-38.735,0-68.758-31.295-69.057-31.611l-1.627-1.722l-2.053,1.185
					c-20.39,11.77-44.751,29.15-44.995,29.324l-3.54,2.53l3.624,2.409c0.514,0.341,12.837,8.463,34.37,16.705
					c19.822,7.587,51.488,16.66,89.78,16.796l0.663,0.001c36.531,0,68.16-10.979,88.26-20.189
					c21.787-9.984,34.784-19.847,35.327-20.262l4.021-3.074l-4.627-2.052l-53-23.5L399.438,364.062L399.438,364.062z"/>
			</g>
		</g>
	</g>
</switch>
</svg>
