<?xml version="1.0" encoding="UTF-8" standalone="no"?>
<svg
   xmlns:dc="http://purl.org/dc/elements/1.1/"
   xmlns:cc="http://creativecommons.org/ns#"
   xmlns:rdf="http://www.w3.org/1999/02/22-rdf-syntax-ns#"
   xmlns:svg="http://www.w3.org/2000/svg"
   xmlns="http://www.w3.org/2000/svg"
   xmlns:xlink="http://www.w3.org/1999/xlink"
   xmlns:sodipodi="http://sodipodi.sourceforge.net/DTD/sodipodi-0.dtd"
   xmlns:inkscape="http://www.inkscape.org/namespaces/inkscape"
   viewBox="0 0 90 90"
   id="svg2"
   version="1.1"
   inkscape:version="0.48.3.1 r9886"
   width="100%"
   height="100%"
   sodipodi:docname="ingress-blue.svg">
  <metadata
     id="metadata21">
    <rdf:RDF>
      <cc:Work
         rdf:about="">
        <dc:format>image/svg+xml</dc:format>
        <dc:type
           rdf:resource="http://purl.org/dc/dcmitype/StillImage" />
      </cc:Work>
    </rdf:RDF>
  </metadata>
  <defs
     id="defs19" />
  <sodipodi:namedview
     pagecolor="#ffffff"
     bordercolor="#666666"
     borderopacity="1"
     objecttolerance="10"
     gridtolerance="10"
     guidetolerance="10"
     inkscape:pageopacity="0"
     inkscape:pageshadow="2"
     inkscape:window-width="1215"
     inkscape:window-height="1000"
     id="namedview17"
     showgrid="false"
     inkscape:zoom="1.8237945"
     inkscape:cx="44.299388"
     inkscape:cy="86.016549"
     inkscape:window-x="65"
     inkscape:window-y="24"
     inkscape:window-maximized="1"
     inkscape:current-layer="layer2" />
  <g
     inkscape:groupmode="layer"
     id="layer2"
     inkscape:label="azul"
     style="display:inline"
     transform="translate(0,-1.5)"
     sodipodi:insensitive="true">
    <g
       transform="matrix(0.98468272,0,0,0.98360656,5.6126912,2.9754097)"
       id="g3021">
      <path
         style="fill:#29aae2"
         inkscape:connector-curvature="0"
         id="path4"
         d="m 40,-1.5 40,23 V 67 L 40,90 0,67 V 21.5 z" />
      <path
         style="fill:#79d0f2"
         inkscape:connector-curvature="0"
         id="path6"
         d="M 40,2.5 76,23.3 V 64.9 L 47.63,81.292 45.045,40.588 14.089,17.471 40,2.5 z" />
      <g
         transform="translate(0,-1.5)"
         style="fill:none;stroke:#ffffff;stroke-width:4"
         id="g8">
        <path
           inkscape:connector-curvature="0"
           id="path10"
           d="M 40,11 70,28.3 V 62.9 L 40,80.2 10,62.9 V 28.3 z M 40,67.6 60,33.8 H 20 z" />
        <path
           inkscape:connector-curvature="0"
           d="M 40,11 V 26.5 M 40,44 v 20"
           id="i" />
        <use
           height="91.5"
           width="80"
           y="0"
           x="0"
           id="use13"
           transform="matrix(-0.5,0.8660254,-0.8660254,-0.5,98.971143,32.858984)"
           xlink:href="#i" />
        <use
           height="91.5"
           width="80"
           y="0"
           x="0"
           id="use15"
           transform="matrix(-0.5,-0.8660254,0.8660254,-0.5,21.028857,102.14102)"
           xlink:href="#i" />
      </g>
    </g>
  </g>
</svg>
