<?xml version="1.0" encoding="UTF-8" standalone="no"?>
<!-- Created with Inkscape (http://www.inkscape.org/) -->

<svg
   xmlns:dc="http://purl.org/dc/elements/1.1/"
   xmlns:cc="http://creativecommons.org/ns#"
   xmlns:rdf="http://www.w3.org/1999/02/22-rdf-syntax-ns#"
   xmlns:svg="http://www.w3.org/2000/svg"
   xmlns="http://www.w3.org/2000/svg"
   xmlns:xlink="http://www.w3.org/1999/xlink"
   xmlns:sodipodi="http://sodipodi.sourceforge.net/DTD/sodipodi-0.dtd"
   xmlns:inkscape="http://www.inkscape.org/namespaces/inkscape"
   width="560.90552"
   height="561"
   id="svg3068"
   version="1.1"
   inkscape:version="0.48.5 r10040"
   sodipodi:docname="convocacao-nova-withlanding-via-bitly.svg"
   inkscape:export-filename="C:\Users\Francisco\Documents\enlightened\recrutamento\convocacao-nova-withlanding-via-bitly.png"
   inkscape:export-xdpi="90"
   inkscape:export-ydpi="90">
  <defs
     id="defs3070" />
  <sodipodi:namedview
     id="base"
     pagecolor="#ffffff"
     bordercolor="#666666"
     borderopacity="1.0"
     inkscape:pageopacity="0.0"
     inkscape:pageshadow="2"
     inkscape:zoom="0.46167558"
     inkscape:cx="386.40032"
     inkscape:cy="213.61354"
     inkscape:document-units="px"
     inkscape:current-layer="layer2"
     showgrid="false"
     inkscape:window-width="1360"
     inkscape:window-height="705"
     inkscape:window-x="-8"
     inkscape:window-y="-8"
     inkscape:window-maximized="1"
     units="cm" />
  <metadata
     id="metadata3073">
    <rdf:RDF>
      <cc:Work
         rdf:about="">
        <dc:format>image/svg+xml</dc:format>
        <dc:type
           rdf:resource="http://purl.org/dc/dcmitype/StillImage" />
        <dc:title></dc:title>
      </cc:Work>
    </rdf:RDF>
  </metadata>
  <g
     inkscape:label="Base Hexagono Verde"
     inkscape:groupmode="layer"
     id="layer1"
     transform="translate(0,-491.36312)"
     sodipodi:insensitive="true">
    <g
       id="g3003"
       transform="translate(-19.499996,19.500015)">
      <path
         id="path4"
         d="M 300.00004,472.25733 544.9004,613.07507 V 891.64928 L 300.00004,1032.467 55.099593,891.64928 V 613.07507 z"
         inkscape:connector-curvature="0"
         style="fill:#02bf02;fill-opacity:1" />
      <path
         id="path6"
         d="M 301.62109,491.25162 526.11797,620.96097 V 880.37965 L 349.20197,982.60057 333.08181,728.76939 140.03939,584.61117 301.62109,491.25162 z"
         inkscape:connector-curvature="0"
         style="fill:#bfffac;fill-opacity:1" />
      <path
         sodipodi:nodetypes="ccccccc"
         inkscape:connector-curvature="0"
         d="m 299.99998,524.49333 196.72131,113.44262 0,226.88521 -196.72131,113.44262 -196.72127,-113.44262 0,-226.88521 z"
         id="path10"
         style="fill:none;stroke:#ffffff;stroke-width:26.22950554" />
      <use
         height="91.5"
         width="80"
         y="0"
         x="0"
         xlink:href="#i"
         transform="matrix(-0.5,0.8660254,-0.8660254,-0.5,1097.3056,861.3586)"
         id="use13"
         style="fill:none;stroke:#ffffff;stroke-width:4" />
      <use
         height="91.5"
         width="80"
         y="0"
         x="0"
         xlink:href="#i"
         transform="matrix(-0.5,-0.8660254,0.8660254,-0.5,-197.30565,1380.9738)"
         id="use15"
         style="fill:none;stroke:#ffffff;stroke-width:4" />
      <path
         sodipodi:nodetypes="cc"
         inkscape:connector-curvature="0"
         id="i"
         d="m 299.99998,524.49333 0,101.63934"
         style="fill:none;stroke:#ffffff;stroke-width:26.22950554" />
    </g>
  </g>
  <g
     inkscape:groupmode="layer"
     id="layer2"
     inkscape:label="QRCode"
     transform="translate(0,-39.001125)">
    <g
       id="g3156"
       transform="matrix(1.0856774,0,0,1.0856774,133.93355,172.93355)">
      <rect
         id="rect3145"
         height="270"
         width="270"
         y="0"
         x="0"
         style="fill:#ffffff;fill-opacity:1" />
      <g
         id="elements">
        <path
           id="path3148"
           d="m 10,10 10,0 0,10 -10,0 z m 10,0 10,0 0,10 -10,0 z m 10,0 10,0 0,10 -10,0 z m 10,0 10,0 0,10 -10,0 z m 10,0 10,0 0,10 -10,0 z m 10,0 10,0 0,10 -10,0 z m 10,0 10,0 0,10 -10,0 z m 30,0 10,0 0,10 -10,0 z m 50,0 10,0 0,10 -10,0 z m 20,0 10,0 0,10 -10,0 z m 20,0 10,0 0,10 -10,0 z m 10,0 10,0 0,10 -10,0 z m 10,0 10,0 0,10 -10,0 z m 10,0 10,0 0,10 -10,0 z m 10,0 10,0 0,10 -10,0 z m 10,0 10,0 0,10 -10,0 z m 10,0 10,0 0,10 -10,0 z m -240,10 10,0 0,10 -10,0 z m 60,0 10,0 0,10 -10,0 z m 20,0 10,0 0,10 -10,0 z m 10,0 10,0 0,10 -10,0 z m 20,0 10,0 0,10 -10,0 z m 10,0 10,0 0,10 -10,0 z m 30,0 10,0 0,10 -10,0 z m 30,0 10,0 0,10 -10,0 z m 60,0 10,0 0,10 -10,0 z m -240,10 10,0 0,10 -10,0 z m 20,0 10,0 0,10 -10,0 z m 10,0 10,0 0,10 -10,0 z m 10,0 10,0 0,10 -10,0 z m 20,0 10,0 0,10 -10,0 z m 30,0 10,0 0,10 -10,0 z m 10,0 10,0 0,10 -10,0 z m 10,0 10,0 0,10 -10,0 z m 40,0 10,0 0,10 -10,0 z m 10,0 10,0 0,10 -10,0 z m 20,0 10,0 0,10 -10,0 z m 20,0 10,0 0,10 -10,0 z m 10,0 10,0 0,10 -10,0 z m 10,0 10,0 0,10 -10,0 z m 20,0 10,0 0,10 -10,0 z m -240,10 10,0 0,10 -10,0 z m 20,0 10,0 0,10 -10,0 z m 10,0 10,0 0,10 -10,0 z m 10,0 10,0 0,10 -10,0 z m 20,0 10,0 0,10 -10,0 z m 20,0 10,0 0,10 -10,0 z m 10,0 10,0 0,10 -10,0 z m 20,0 10,0 0,10 -10,0 z m 20,0 10,0 0,10 -10,0 z m 10,0 10,0 0,10 -10,0 z m 40,0 10,0 0,10 -10,0 z m 20,0 10,0 0,10 -10,0 z m 10,0 10,0 0,10 -10,0 z m 10,0 10,0 0,10 -10,0 z m 20,0 10,0 0,10 -10,0 z m -240,10 10,0 0,10 -10,0 z m 20,0 10,0 0,10 -10,0 z m 10,0 10,0 0,10 -10,0 z m 10,0 10,0 0,10 -10,0 z m 20,0 10,0 0,10 -10,0 z m 40,0 10,0 0,10 -10,0 z m 20,0 10,0 0,10 -10,0 z m 10,0 10,0 0,10 -10,0 z m 30,0 10,0 0,10 -10,0 z m 20,0 10,0 0,10 -10,0 z m 20,0 10,0 0,10 -10,0 z m 10,0 10,0 0,10 -10,0 z m 10,0 10,0 0,10 -10,0 z m 20,0 10,0 0,10 -10,0 z m -240,10 10,0 0,10 -10,0 z m 60,0 10,0 0,10 -10,0 z m 20,0 10,0 0,10 -10,0 z m 20,0 10,0 0,10 -10,0 z m 30,0 10,0 0,10 -10,0 z m 10,0 10,0 0,10 -10,0 z m 10,0 10,0 0,10 -10,0 z m 30,0 10,0 0,10 -10,0 z m 60,0 10,0 0,10 -10,0 z m -240,10 10,0 0,10 -10,0 z m 10,0 10,0 0,10 -10,0 z m 10,0 10,0 0,10 -10,0 z m 10,0 10,0 0,10 -10,0 z m 10,0 10,0 0,10 -10,0 z m 10,0 10,0 0,10 -10,0 z m 10,0 10,0 0,10 -10,0 z m 20,0 10,0 0,10 -10,0 z m 20,0 10,0 0,10 -10,0 z m 20,0 10,0 0,10 -10,0 z m 20,0 10,0 0,10 -10,0 z m 20,0 10,0 0,10 -10,0 z m 20,0 10,0 0,10 -10,0 z m 10,0 10,0 0,10 -10,0 z m 10,0 10,0 0,10 -10,0 z m 10,0 10,0 0,10 -10,0 z m 10,0 10,0 0,10 -10,0 z m 10,0 10,0 0,10 -10,0 z m 10,0 10,0 0,10 -10,0 z m -120,10 10,0 0,10 -10,0 z m 20,0 10,0 0,10 -10,0 z m 20,0 10,0 0,10 -10,0 z m -160,10 10,0 0,10 -10,0 z m 10,0 10,0 0,10 -10,0 z m 10,0 10,0 0,10 -10,0 z m 10,0 10,0 0,10 -10,0 z m 10,0 10,0 0,10 -10,0 z m 20,0 10,0 0,10 -10,0 z m 10,0 10,0 0,10 -10,0 z m 10,0 10,0 0,10 -10,0 z m 10,0 10,0 0,10 -10,0 z m 10,0 10,0 0,10 -10,0 z m 20,0 10,0 0,10 -10,0 z m 10,0 10,0 0,10 -10,0 z m 10,0 10,0 0,10 -10,0 z m 30,0 10,0 0,10 -10,0 z m 20,0 10,0 0,10 -10,0 z m 20,0 10,0 0,10 -10,0 z m 20,0 10,0 0,10 -10,0 z m -190,10 10,0 0,10 -10,0 z m 10,0 10,0 0,10 -10,0 z m 20,0 10,0 0,10 -10,0 z m 20,0 10,0 0,10 -10,0 z m 70,0 10,0 0,10 -10,0 z m 10,0 10,0 0,10 -10,0 z m 20,0 10,0 0,10 -10,0 z m 40,0 10,0 0,10 -10,0 z m -220,10 10,0 0,10 -10,0 z m 20,0 10,0 0,10 -10,0 z m 10,0 10,0 0,10 -10,0 z m 10,0 10,0 0,10 -10,0 z m 10,0 10,0 0,10 -10,0 z m 10,0 10,0 0,10 -10,0 z m 20,0 10,0 0,10 -10,0 z m 20,0 10,0 0,10 -10,0 z m 10,0 10,0 0,10 -10,0 z m 30,0 10,0 0,10 -10,0 z m 10,0 10,0 0,10 -10,0 z m 10,0 10,0 0,10 -10,0 z m 10,0 10,0 0,10 -10,0 z m 10,0 10,0 0,10 -10,0 z m 20,0 10,0 0,10 -10,0 z m 20,0 10,0 0,10 -10,0 z m 10,0 10,0 0,10 -10,0 z m -190,10 10,0 0,10 -10,0 z m 30,0 10,0 0,10 -10,0 z m 10,0 10,0 0,10 -10,0 z m 10,0 10,0 0,10 -10,0 z m 10,0 10,0 0,10 -10,0 z m 30,0 10,0 0,10 -10,0 z m 10,0 10,0 0,10 -10,0 z m 10,0 10,0 0,10 -10,0 z m 20,0 10,0 0,10 -10,0 z m 20,0 10,0 0,10 -10,0 z m 40,0 10,0 0,10 -10,0 z m -210,10 10,0 0,10 -10,0 z m 10,0 10,0 0,10 -10,0 z m 20,0 10,0 0,10 -10,0 z m 10,0 10,0 0,10 -10,0 z m 10,0 10,0 0,10 -10,0 z m 10,0 10,0 0,10 -10,0 z m 20,0 10,0 0,10 -10,0 z m 40,0 10,0 0,10 -10,0 z m 30,0 10,0 0,10 -10,0 z m 20,0 10,0 0,10 -10,0 z m 20,0 10,0 0,10 -10,0 z m 10,0 10,0 0,10 -10,0 z m 10,0 10,0 0,10 -10,0 z m -240,10 10,0 0,10 -10,0 z m 20,0 10,0 0,10 -10,0 z m 50,0 10,0 0,10 -10,0 z m 20,0 10,0 0,10 -10,0 z m 10,0 10,0 0,10 -10,0 z m 20,0 10,0 0,10 -10,0 z m 10,0 10,0 0,10 -10,0 z m 30,0 10,0 0,10 -10,0 z m 30,0 10,0 0,10 -10,0 z m 20,0 10,0 0,10 -10,0 z m 20,0 10,0 0,10 -10,0 z m -230,10 10,0 0,10 -10,0 z m 30,0 10,0 0,10 -10,0 z m 30,0 10,0 0,10 -10,0 z m 30,0 10,0 0,10 -10,0 z m 40,0 10,0 0,10 -10,0 z m 10,0 10,0 0,10 -10,0 z m 10,0 10,0 0,10 -10,0 z m 10,0 10,0 0,10 -10,0 z m 10,0 10,0 0,10 -10,0 z m 30,0 10,0 0,10 -10,0 z m 10,0 10,0 0,10 -10,0 z m 20,0 10,0 0,10 -10,0 z m 10,0 10,0 0,10 -10,0 z m -240,10 10,0 0,10 -10,0 z m 30,0 10,0 0,10 -10,0 z m 20,0 10,0 0,10 -10,0 z m 70,0 10,0 0,10 -10,0 z m 10,0 10,0 0,10 -10,0 z m 30,0 10,0 0,10 -10,0 z m 50,0 10,0 0,10 -10,0 z m 30,0 10,0 0,10 -10,0 z m -240,10 10,0 0,10 -10,0 z m 30,0 10,0 0,10 -10,0 z m 10,0 10,0 0,10 -10,0 z m 10,0 10,0 0,10 -10,0 z m 10,0 10,0 0,10 -10,0 z m 30,0 10,0 0,10 -10,0 z m 30,0 10,0 0,10 -10,0 z m 20,0 10,0 0,10 -10,0 z m 20,0 10,0 0,10 -10,0 z m 10,0 10,0 0,10 -10,0 z m 10,0 10,0 0,10 -10,0 z m 10,0 10,0 0,10 -10,0 z m 10,0 10,0 0,10 -10,0 z m 20,0 10,0 0,10 -10,0 z m -140,10 10,0 0,10 -10,0 z m 10,0 10,0 0,10 -10,0 z m 10,0 10,0 0,10 -10,0 z m 50,0 10,0 0,10 -10,0 z m 10,0 10,0 0,10 -10,0 z m 40,0 10,0 0,10 -10,0 z m 10,0 10,0 0,10 -10,0 z m 10,0 10,0 0,10 -10,0 z m -220,10 10,0 0,10 -10,0 z m 10,0 10,0 0,10 -10,0 z m 10,0 10,0 0,10 -10,0 z m 10,0 10,0 0,10 -10,0 z m 10,0 10,0 0,10 -10,0 z m 10,0 10,0 0,10 -10,0 z m 10,0 10,0 0,10 -10,0 z m 20,0 10,0 0,10 -10,0 z m 10,0 10,0 0,10 -10,0 z m 10,0 10,0 0,10 -10,0 z m 10,0 10,0 0,10 -10,0 z m 10,0 10,0 0,10 -10,0 z m 40,0 10,0 0,10 -10,0 z m 20,0 10,0 0,10 -10,0 z m 20,0 10,0 0,10 -10,0 z m 10,0 10,0 0,10 -10,0 z m 10,0 10,0 0,10 -10,0 z m 10,0 10,0 0,10 -10,0 z m 10,0 10,0 0,10 -10,0 z m -240,10 10,0 0,10 -10,0 z m 60,0 10,0 0,10 -10,0 z m 30,0 10,0 0,10 -10,0 z m 10,0 10,0 0,10 -10,0 z m 10,0 10,0 0,10 -10,0 z m 30,0 10,0 0,10 -10,0 z m 10,0 10,0 0,10 -10,0 z m 10,0 10,0 0,10 -10,0 z m 40,0 10,0 0,10 -10,0 z m 10,0 10,0 0,10 -10,0 z m 30,0 10,0 0,10 -10,0 z m -240,10 10,0 0,10 -10,0 z m 20,0 10,0 0,10 -10,0 z m 10,0 10,0 0,10 -10,0 z m 10,0 10,0 0,10 -10,0 z m 20,0 10,0 0,10 -10,0 z m 20,0 10,0 0,10 -10,0 z m 10,0 10,0 0,10 -10,0 z m 10,0 10,0 0,10 -10,0 z m 10,0 10,0 0,10 -10,0 z m 40,0 10,0 0,10 -10,0 z m 10,0 10,0 0,10 -10,0 z m 10,0 10,0 0,10 -10,0 z m 10,0 10,0 0,10 -10,0 z m 10,0 10,0 0,10 -10,0 z m 10,0 10,0 0,10 -10,0 z m 10,0 10,0 0,10 -10,0 z m 10,0 10,0 0,10 -10,0 z m 10,0 10,0 0,10 -10,0 z m 10,0 10,0 0,10 -10,0 z m -240,10 10,0 0,10 -10,0 z m 20,0 10,0 0,10 -10,0 z m 10,0 10,0 0,10 -10,0 z m 10,0 10,0 0,10 -10,0 z m 20,0 10,0 0,10 -10,0 z m 20,0 10,0 0,10 -10,0 z m 20,0 10,0 0,10 -10,0 z m 20,0 10,0 0,10 -10,0 z m 10,0 10,0 0,10 -10,0 z m 10,0 10,0 0,10 -10,0 z m 30,0 10,0 0,10 -10,0 z m 10,0 10,0 0,10 -10,0 z m 20,0 10,0 0,10 -10,0 z m 20,0 10,0 0,10 -10,0 z m 10,0 10,0 0,10 -10,0 z m 10,0 10,0 0,10 -10,0 z m -240,10 10,0 0,10 -10,0 z m 20,0 10,0 0,10 -10,0 z m 10,0 10,0 0,10 -10,0 z m 10,0 10,0 0,10 -10,0 z m 20,0 10,0 0,10 -10,0 z m 20,0 10,0 0,10 -10,0 z m 10,0 10,0 0,10 -10,0 z m 10,0 10,0 0,10 -10,0 z m 30,0 10,0 0,10 -10,0 z m 10,0 10,0 0,10 -10,0 z m 10,0 10,0 0,10 -10,0 z m 10,0 10,0 0,10 -10,0 z m 30,0 10,0 0,10 -10,0 z m 30,0 10,0 0,10 -10,0 z m 20,0 10,0 0,10 -10,0 z m -240,10 10,0 0,10 -10,0 z m 60,0 10,0 0,10 -10,0 z m 20,0 10,0 0,10 -10,0 z m 20,0 10,0 0,10 -10,0 z m 20,0 10,0 0,10 -10,0 z m 10,0 10,0 0,10 -10,0 z m 30,0 10,0 0,10 -10,0 z m 10,0 10,0 0,10 -10,0 z m 20,0 10,0 0,10 -10,0 z m 10,0 10,0 0,10 -10,0 z m 10,0 10,0 0,10 -10,0 z m 30,0 10,0 0,10 -10,0 z m -240,10 10,0 0,10 -10,0 z m 10,0 10,0 0,10 -10,0 z m 10,0 10,0 0,10 -10,0 z m 10,0 10,0 0,10 -10,0 z m 10,0 10,0 0,10 -10,0 z m 10,0 10,0 0,10 -10,0 z m 10,0 10,0 0,10 -10,0 z m 20,0 10,0 0,10 -10,0 z m 10,0 10,0 0,10 -10,0 z m 10,0 10,0 0,10 -10,0 z m 20,0 10,0 0,10 -10,0 z m 20,0 10,0 0,10 -10,0 z m 40,0 10,0 0,10 -10,0 z m 10,0 10,0 0,10 -10,0 z m 10,0 10,0 0,10 -10,0 z m 10,0 10,0 0,10 -10,0 z m 10,0 10,0 0,10 -10,0 z m 10,0 10,0 0,10 -10,0 z m 10,0 10,0 0,10 -10,0 z"
           style="fill:#000000"
           inkscape:connector-curvature="0" />
      </g>
    </g>
    <text
       xml:space="preserve"
       style="font-size:29.96434021px;font-style:normal;font-weight:normal;line-height:125%;letter-spacing:0px;word-spacing:0px;fill:#006900;fill-opacity:1;stroke:none;font-family:Sans"
       x="-14.106095"
       y="621.38361"
       id="text3052"
       sodipodi:linespacing="125%"
       transform="matrix(0.86669199,-0.49884366,0.49884366,0.86669199,0,0)"><tspan
         sodipodi:role="line"
         id="tspan3054"
         x="-14.106095"
         y="621.38361"
         style="font-size:26px;font-style:normal;font-variant:normal;font-weight:bold;font-stretch:normal;fill:#006900;fill-opacity:1;font-family:Arial;-inkscape-font-specification:Arial Bold">http://bit.ly/enlpoa</tspan></text>
    <text
       xml:space="preserve"
       style="font-size:26.69875336px;font-style:normal;font-weight:normal;text-align:center;line-height:125%;letter-spacing:0px;word-spacing:0px;text-anchor:middle;fill:#006900;fill-opacity:1;stroke:none;font-family:Sans"
       x="385.02469"
       y="-51.945652"
       id="text3056"
       sodipodi:linespacing="125%"
       transform="matrix(0.86861239,0.49549219,-0.49549219,0.86861239,0,0)"><tspan
         sodipodi:role="line"
         x="385.02469"
         y="-51.945652"
         id="tspan3060"
         style="font-size:28.5px;font-style:normal;font-variant:normal;font-weight:bold;font-stretch:normal;fill:#006900;fill-opacity:1;font-family:Arial;-inkscape-font-specification:Arial Bold">nesse time!</tspan></text>
    <text
       transform="matrix(0.86341502,-0.5044943,0.5044943,0.86341502,0,0)"
       sodipodi:linespacing="125%"
       id="text2997"
       y="227.07545"
       x="96.970909"
       style="font-size:28.5px;font-style:normal;font-weight:normal;text-align:center;line-height:125%;letter-spacing:0px;word-spacing:0px;text-anchor:middle;fill:#006900;fill-opacity:1;stroke:none;font-family:Sans"
       xml:space="preserve"><tspan
         style="font-size:28.5px;font-style:normal;font-variant:normal;font-weight:bold;font-stretch:normal;fill:#006900;fill-opacity:1;font-family:Arial;-inkscape-font-specification:Arial Bold"
         id="tspan2999"
         y="227.07545"
         x="100.92306"
         sodipodi:role="line">Venha jogar </tspan></text>
    <text
       xml:space="preserve"
       style="font-size:28.5px;font-style:normal;font-weight:normal;text-align:center;line-height:125%;letter-spacing:0px;word-spacing:0px;text-anchor:middle;fill:#006900;fill-opacity:1;stroke:none;font-family:Sans"
       x="417.53485"
       y="330.34399"
       id="text3043"
       sodipodi:linespacing="125%"
       transform="matrix(0.85244975,0.52280917,-0.52280917,0.85244975,0,0)"><tspan
         sodipodi:role="line"
         x="417.53485"
         y="330.34399"
         id="tspan3045"
         style="font-size:27px;font-style:normal;font-variant:normal;font-weight:bold;font-stretch:normal;fill:#006900;fill-opacity:1;font-family:Arial;-inkscape-font-specification:Arial Bold">EnlighTCHÊned</tspan></text>
  </g>
</svg>
