<?xml version="1.0" encoding="UTF-8" standalone="no"?>
<!-- Created with Inkscape (http://www.inkscape.org/) -->

<svg
   xmlns:dc="http://purl.org/dc/elements/1.1/"
   xmlns:cc="http://creativecommons.org/ns#"
   xmlns:rdf="http://www.w3.org/1999/02/22-rdf-syntax-ns#"
   xmlns:svg="http://www.w3.org/2000/svg"
   xmlns="http://www.w3.org/2000/svg"
   xmlns:xlink="http://www.w3.org/1999/xlink"
   xmlns:sodipodi="http://sodipodi.sourceforge.net/DTD/sodipodi-0.dtd"
   xmlns:inkscape="http://www.inkscape.org/namespaces/inkscape"
   width="600"
   height="600"
   id="svg3068"
   version="1.1"
   inkscape:version="0.48.3.1 r9886"
   sodipodi:docname="convocacao-nova-withlanding.svg"
   inkscape:export-filename="/home/fkrahe/Desktop/nova.png"
   inkscape:export-xdpi="90"
   inkscape:export-ydpi="90">
  <defs
     id="defs3070" />
  <sodipodi:namedview
     id="base"
     pagecolor="#ffffff"
     bordercolor="#666666"
     borderopacity="1.0"
     inkscape:pageopacity="0.0"
     inkscape:pageshadow="2"
     inkscape:zoom="1.0052701"
     inkscape:cx="379.9025"
     inkscape:cy="177.50603"
     inkscape:document-units="px"
     inkscape:current-layer="layer1"
     showgrid="false"
     inkscape:window-width="1215"
     inkscape:window-height="1000"
     inkscape:window-x="65"
     inkscape:window-y="24"
     inkscape:window-maximized="1" />
  <metadata
     id="metadata3073">
    <rdf:RDF>
      <cc:Work
         rdf:about="">
        <dc:format>image/svg+xml</dc:format>
        <dc:type
           rdf:resource="http://purl.org/dc/dcmitype/StillImage" />
        <dc:title></dc:title>
      </cc:Work>
    </rdf:RDF>
  </metadata>
  <g
     inkscape:label="Layer 1"
     inkscape:groupmode="layer"
     id="layer1"
     transform="translate(0,-452.36218)">
    <g
       id="g3025">
      <path
         id="path4"
         d="M 300.00004,452.36218 562.29507,603.18185 V 901.54249 L 300.00004,1052.3622 37.704927,901.54249 V 603.18185 z"
         inkscape:connector-curvature="0"
         style="fill:#7cf150;fill-opacity:1" />
      <path
         id="path6"
         d="M 300.00004,478.59168 536.06555,614.98513 V 887.77201 L 350.03283,995.26051 333.08197,728.34906 130.09181,576.76218 300.00004,478.59168 z"
         inkscape:connector-curvature="0"
         style="fill:#bfffac;fill-opacity:1" />
      <path
         sodipodi:nodetypes="ccccccc"
         inkscape:connector-curvature="0"
         d="m 299.99998,524.49333 196.72131,113.44262 0,226.88521 -196.72131,113.44262 -196.72127,-113.44262 0,-226.88521 z"
         id="path10"
         style="fill:none;stroke:#ffffff;stroke-width:26.22950554" />
      <use
         height="91.5"
         width="80"
         y="0"
         x="0"
         xlink:href="#i"
         transform="matrix(-0.5,0.8660254,-0.8660254,-0.5,1097.3056,861.3586)"
         id="use13"
         style="fill:none;stroke:#ffffff;stroke-width:4" />
      <use
         height="91.5"
         width="80"
         y="0"
         x="0"
         xlink:href="#i"
         transform="matrix(-0.5,-0.8660254,0.8660254,-0.5,-197.30565,1380.9738)"
         id="use15"
         style="fill:none;stroke:#ffffff;stroke-width:4" />
      <path
         sodipodi:nodetypes="cc"
         inkscape:connector-curvature="0"
         id="i"
         d="m 299.99998,524.49333 0,101.63934"
         style="fill:none;stroke:#ffffff;stroke-width:26.22950554" />
      <path
         inkscape:transform-center-x="3.1300359e-05"
         transform="matrix(0.5286994,0,0,0.1719067,1205.7293,763.42891)"
         inkscape:transform-center-y="-29.33677"
         d="m -1472.2005,-800.50668 -241.0182,0 -241.0183,0 120.5091,-208.72792 120.5092,-208.7279 120.5091,208.7279 z"
         inkscape:randomized="0"
         inkscape:rounded="0"
         inkscape:flatsided="false"
         sodipodi:arg2="1.5707963"
         sodipodi:arg1="0.52359878"
         sodipodi:r2="139.15195"
         sodipodi:r1="278.30389"
         sodipodi:cy="-939.65863"
         sodipodi:cx="-1713.2188"
         sodipodi:sides="3"
         id="path3048"
         style="fill:#ffffff;fill-opacity:1"
         sodipodi:type="star" />
      <path
         sodipodi:type="star"
         style="fill:#ffffff;fill-opacity:1"
         id="path3050"
         sodipodi:sides="3"
         sodipodi:cx="-1713.2188"
         sodipodi:cy="-939.65863"
         sodipodi:r1="278.30389"
         sodipodi:r2="139.15195"
         sodipodi:arg1="0.52359878"
         sodipodi:arg2="1.5707963"
         inkscape:flatsided="false"
         inkscape:rounded="0"
         inkscape:randomized="0"
         d="m -1472.2005,-800.50668 -241.0182,0 -241.0183,0 120.5091,-208.72792 120.5092,-208.7279 120.5091,208.7279 z"
         inkscape:transform-center-y="29.33677"
         transform="matrix(0.5286994,0,0,-0.1719067,1205.7293,741.28668)"
         inkscape:transform-center-x="3.1300359e-05" />
      <g
         transform="matrix(1.0397445,0,0,1.0397445,172.63129,624.99347)"
         id="g3990">
        <rect
           style="fill:#ffffff;fill-opacity:1"
           x="0"
           y="0"
           width="245"
           height="245"
           id="rect3979" />
        <g
           id="elements">
          <path
             inkscape:connector-curvature="0"
             style="fill:#000000"
             d="m 7,7 7,0 0,7 -7,0 z m 7,0 7,0 0,7 -7,0 z m 7,0 7,0 0,7 -7,0 z m 7,0 7,0 0,7 -7,0 z m 7,0 7,0 0,7 -7,0 z m 7,0 7,0 0,7 -7,0 z m 7,0 7,0 0,7 -7,0 z m 21,0 7,0 0,7 -7,0 z m 42,0 7,0 0,7 -7,0 z m 7,0 7,0 0,7 -7,0 z m 7,0 7,0 0,7 -7,0 z m 7,0 7,0 0,7 -7,0 z m 7,0 7,0 0,7 -7,0 z m 14,0 7,0 0,7 -7,0 z m 14,0 7,0 0,7 -7,0 z m 7,0 7,0 0,7 -7,0 z m 14,0 7,0 0,7 -7,0 z m 7,0 7,0 0,7 -7,0 z m 7,0 7,0 0,7 -7,0 z m 7,0 7,0 0,7 -7,0 z m 7,0 7,0 0,7 -7,0 z m 7,0 7,0 0,7 -7,0 z m 7,0 7,0 0,7 -7,0 z m -224,7 7,0 0,7 -7,0 z m 42,0 7,0 0,7 -7,0 z m 14,0 7,0 0,7 -7,0 z m 7,0 7,0 0,7 -7,0 z m 14,0 7,0 0,7 -7,0 z m 7,0 7,0 0,7 -7,0 z m 63,0 7,0 0,7 -7,0 z m 35,0 7,0 0,7 -7,0 z m 42,0 7,0 0,7 -7,0 z m -224,7 7,0 0,7 -7,0 z m 14,0 7,0 0,7 -7,0 z m 7,0 7,0 0,7 -7,0 z m 7,0 7,0 0,7 -7,0 z m 14,0 7,0 0,7 -7,0 z m 21,0 7,0 0,7 -7,0 z m 7,0 7,0 0,7 -7,0 z m 7,0 7,0 0,7 -7,0 z m 21,0 7,0 0,7 -7,0 z m 14,0 7,0 0,7 -7,0 z m 14,0 7,0 0,7 -7,0 z m 14,0 7,0 0,7 -7,0 z m 7,0 7,0 0,7 -7,0 z m 35,0 7,0 0,7 -7,0 z m 14,0 7,0 0,7 -7,0 z m 7,0 7,0 0,7 -7,0 z m 7,0 7,0 0,7 -7,0 z m 14,0 7,0 0,7 -7,0 z m -224,7 7,0 0,7 -7,0 z m 14,0 7,0 0,7 -7,0 z m 7,0 7,0 0,7 -7,0 z m 7,0 7,0 0,7 -7,0 z m 14,0 7,0 0,7 -7,0 z m 14,0 7,0 0,7 -7,0 z m 7,0 7,0 0,7 -7,0 z m 14,0 7,0 0,7 -7,0 z m 35,0 7,0 0,7 -7,0 z m 7,0 7,0 0,7 -7,0 z m 14,0 7,0 0,7 -7,0 z m 14,0 7,0 0,7 -7,0 z m 7,0 7,0 0,7 -7,0 z m 7,0 7,0 0,7 -7,0 z m 7,0 7,0 0,7 -7,0 z m 14,0 7,0 0,7 -7,0 z m 14,0 7,0 0,7 -7,0 z m 7,0 7,0 0,7 -7,0 z m 7,0 7,0 0,7 -7,0 z m 14,0 7,0 0,7 -7,0 z m -224,7 7,0 0,7 -7,0 z m 14,0 7,0 0,7 -7,0 z m 7,0 7,0 0,7 -7,0 z m 7,0 7,0 0,7 -7,0 z m 14,0 7,0 0,7 -7,0 z m 28,0 7,0 0,7 -7,0 z m 14,0 7,0 0,7 -7,0 z m 7,0 7,0 0,7 -7,0 z m 7,0 7,0 0,7 -7,0 z m 7,0 7,0 0,7 -7,0 z m 14,0 7,0 0,7 -7,0 z m 7,0 7,0 0,7 -7,0 z m 7,0 7,0 0,7 -7,0 z m 7,0 7,0 0,7 -7,0 z m 21,0 7,0 0,7 -7,0 z m 21,0 7,0 0,7 -7,0 z m 14,0 7,0 0,7 -7,0 z m 7,0 7,0 0,7 -7,0 z m 7,0 7,0 0,7 -7,0 z m 14,0 7,0 0,7 -7,0 z m -224,7 7,0 0,7 -7,0 z m 42,0 7,0 0,7 -7,0 z m 14,0 7,0 0,7 -7,0 z m 14,0 7,0 0,7 -7,0 z m 21,0 7,0 0,7 -7,0 z m 7,0 7,0 0,7 -7,0 z m 7,0 7,0 0,7 -7,0 z m 7,0 7,0 0,7 -7,0 z m 42,0 7,0 0,7 -7,0 z m 28,0 7,0 0,7 -7,0 z m 42,0 7,0 0,7 -7,0 z m -224,7 7,0 0,7 -7,0 z m 7,0 7,0 0,7 -7,0 z m 7,0 7,0 0,7 -7,0 z m 7,0 7,0 0,7 -7,0 z m 7,0 7,0 0,7 -7,0 z m 7,0 7,0 0,7 -7,0 z m 7,0 7,0 0,7 -7,0 z m 14,0 7,0 0,7 -7,0 z m 14,0 7,0 0,7 -7,0 z m 14,0 7,0 0,7 -7,0 z m 14,0 7,0 0,7 -7,0 z m 14,0 7,0 0,7 -7,0 z m 14,0 7,0 0,7 -7,0 z m 14,0 7,0 0,7 -7,0 z m 14,0 7,0 0,7 -7,0 z m 14,0 7,0 0,7 -7,0 z m 14,0 7,0 0,7 -7,0 z m 7,0 7,0 0,7 -7,0 z m 7,0 7,0 0,7 -7,0 z m 7,0 7,0 0,7 -7,0 z m 7,0 7,0 0,7 -7,0 z m 7,0 7,0 0,7 -7,0 z m 7,0 7,0 0,7 -7,0 z m -140,7 7,0 0,7 -7,0 z m 7,0 7,0 0,7 -7,0 z m 14,0 7,0 0,7 -7,0 z m 21,0 7,0 0,7 -7,0 z m 14,0 7,0 0,7 -7,0 z m 14,0 7,0 0,7 -7,0 z m 7,0 7,0 0,7 -7,0 z m -161,7 7,0 0,7 -7,0 z m 7,0 7,0 0,7 -7,0 z m 7,0 7,0 0,7 -7,0 z m 7,0 7,0 0,7 -7,0 z m 7,0 7,0 0,7 -7,0 z m 14,0 7,0 0,7 -7,0 z m 7,0 7,0 0,7 -7,0 z m 7,0 7,0 0,7 -7,0 z m 7,0 7,0 0,7 -7,0 z m 7,0 7,0 0,7 -7,0 z m 14,0 7,0 0,7 -7,0 z m 14,0 7,0 0,7 -7,0 z m 7,0 7,0 0,7 -7,0 z m 14,0 7,0 0,7 -7,0 z m 7,0 7,0 0,7 -7,0 z m 7,0 7,0 0,7 -7,0 z m 14,0 7,0 0,7 -7,0 z m 14,0 7,0 0,7 -7,0 z m 7,0 7,0 0,7 -7,0 z m 7,0 7,0 0,7 -7,0 z m 14,0 7,0 0,7 -7,0 z m 14,0 7,0 0,7 -7,0 z m 14,0 7,0 0,7 -7,0 z m -217,7 7,0 0,7 -7,0 z m 7,0 7,0 0,7 -7,0 z m 42,0 7,0 0,7 -7,0 z m 14,0 7,0 0,7 -7,0 z m 42,0 7,0 0,7 -7,0 z m 7,0 7,0 0,7 -7,0 z m 7,0 7,0 0,7 -7,0 z m 7,0 7,0 0,7 -7,0 z m 7,0 7,0 0,7 -7,0 z m 7,0 7,0 0,7 -7,0 z m 7,0 7,0 0,7 -7,0 z m 7,0 7,0 0,7 -7,0 z m 7,0 7,0 0,7 -7,0 z m 21,0 7,0 0,7 -7,0 z m 35,0 7,0 0,7 -7,0 z m 7,0 7,0 0,7 -7,0 z m -210,7 7,0 0,7 -7,0 z m 7,0 7,0 0,7 -7,0 z m 7,0 7,0 0,7 -7,0 z m 14,0 7,0 0,7 -7,0 z m 7,0 7,0 0,7 -7,0 z m 14,0 7,0 0,7 -7,0 z m 14,0 7,0 0,7 -7,0 z m 7,0 7,0 0,7 -7,0 z m 49,0 7,0 0,7 -7,0 z m 7,0 7,0 0,7 -7,0 z m 7,0 7,0 0,7 -7,0 z m 42,0 7,0 0,7 -7,0 z m 7,0 7,0 0,7 -7,0 z m -196,7 7,0 0,7 -7,0 z m 14,0 7,0 0,7 -7,0 z m 7,0 7,0 0,7 -7,0 z m 7,0 7,0 0,7 -7,0 z m 21,0 7,0 0,7 -7,0 z m 7,0 7,0 0,7 -7,0 z m 7,0 7,0 0,7 -7,0 z m 7,0 7,0 0,7 -7,0 z m 7,0 7,0 0,7 -7,0 z m 21,0 7,0 0,7 -7,0 z m 14,0 7,0 0,7 -7,0 z m 7,0 7,0 0,7 -7,0 z m 21,0 7,0 0,7 -7,0 z m 7,0 7,0 0,7 -7,0 z m 7,0 7,0 0,7 -7,0 z m 7,0 7,0 0,7 -7,0 z m 7,0 7,0 0,7 -7,0 z m 14,0 7,0 0,7 -7,0 z m 14,0 7,0 0,7 -7,0 z m 14,0 7,0 0,7 -7,0 z m -210,7 7,0 0,7 -7,0 z m 7,0 7,0 0,7 -7,0 z m 7,0 7,0 0,7 -7,0 z m 14,0 7,0 0,7 -7,0 z m 14,0 7,0 0,7 -7,0 z m 14,0 7,0 0,7 -7,0 z m 7,0 7,0 0,7 -7,0 z m 14,0 7,0 0,7 -7,0 z m 42,0 7,0 0,7 -7,0 z m 14,0 7,0 0,7 -7,0 z m 14,0 7,0 0,7 -7,0 z m 21,0 7,0 0,7 -7,0 z m 7,0 7,0 0,7 -7,0 z m 14,0 7,0 0,7 -7,0 z m 7,0 7,0 0,7 -7,0 z m -182,7 7,0 0,7 -7,0 z m 7,0 7,0 0,7 -7,0 z m 14,0 7,0 0,7 -7,0 z m 21,0 7,0 0,7 -7,0 z m 14,0 7,0 0,7 -7,0 z m 14,0 7,0 0,7 -7,0 z m 7,0 7,0 0,7 -7,0 z m 7,0 7,0 0,7 -7,0 z m 7,0 7,0 0,7 -7,0 z m 21,0 7,0 0,7 -7,0 z m 14,0 7,0 0,7 -7,0 z m 7,0 7,0 0,7 -7,0 z m 14,0 7,0 0,7 -7,0 z m 21,0 7,0 0,7 -7,0 z m 7,0 7,0 0,7 -7,0 z m 14,0 7,0 0,7 -7,0 z m 14,0 7,0 0,7 -7,0 z m 7,0 7,0 0,7 -7,0 z m -224,7 7,0 0,7 -7,0 z m 7,0 7,0 0,7 -7,0 z m 7,0 7,0 0,7 -7,0 z m 14,0 7,0 0,7 -7,0 z m 14,0 7,0 0,7 -7,0 z m 49,0 7,0 0,7 -7,0 z m 7,0 7,0 0,7 -7,0 z m 7,0 7,0 0,7 -7,0 z m 28,0 7,0 0,7 -7,0 z m 14,0 7,0 0,7 -7,0 z m 21,0 7,0 0,7 -7,0 z m 7,0 7,0 0,7 -7,0 z m 7,0 7,0 0,7 -7,0 z m 21,0 7,0 0,7 -7,0 z m 14,0 7,0 0,7 -7,0 z m -217,7 7,0 0,7 -7,0 z m 21,0 7,0 0,7 -7,0 z m 28,0 7,0 0,7 -7,0 z m 35,0 7,0 0,7 -7,0 z m 7,0 7,0 0,7 -7,0 z m 14,0 7,0 0,7 -7,0 z m 14,0 7,0 0,7 -7,0 z m 14,0 7,0 0,7 -7,0 z m 7,0 7,0 0,7 -7,0 z m 7,0 7,0 0,7 -7,0 z m 14,0 7,0 0,7 -7,0 z m 28,0 7,0 0,7 -7,0 z m 21,0 7,0 0,7 -7,0 z m -203,7 7,0 0,7 -7,0 z m 21,0 7,0 0,7 -7,0 z m 14,0 7,0 0,7 -7,0 z m 7,0 7,0 0,7 -7,0 z m 14,0 7,0 0,7 -7,0 z m 7,0 7,0 0,7 -7,0 z m 14,0 7,0 0,7 -7,0 z m 14,0 7,0 0,7 -7,0 z m 7,0 7,0 0,7 -7,0 z m 14,0 7,0 0,7 -7,0 z m 7,0 7,0 0,7 -7,0 z m 7,0 7,0 0,7 -7,0 z m 28,0 7,0 0,7 -7,0 z m 7,0 7,0 0,7 -7,0 z m 7,0 7,0 0,7 -7,0 z m 14,0 7,0 0,7 -7,0 z m 7,0 7,0 0,7 -7,0 z m 21,0 7,0 0,7 -7,0 z m -210,7 7,0 0,7 -7,0 z m 7,0 7,0 0,7 -7,0 z m 14,0 7,0 0,7 -7,0 z m 7,0 7,0 0,7 -7,0 z m 21,0 7,0 0,7 -7,0 z m 7,0 7,0 0,7 -7,0 z m 7,0 7,0 0,7 -7,0 z m 35,0 7,0 0,7 -7,0 z m 14,0 7,0 0,7 -7,0 z m 7,0 7,0 0,7 -7,0 z m 14,0 7,0 0,7 -7,0 z m 7,0 7,0 0,7 -7,0 z m 14,0 7,0 0,7 -7,0 z m 7,0 7,0 0,7 -7,0 z m 14,0 7,0 0,7 -7,0 z m 21,0 7,0 0,7 -7,0 z m 14,0 7,0 0,7 -7,0 z m 7,0 7,0 0,7 -7,0 z m -217,7 7,0 0,7 -7,0 z m 7,0 7,0 0,7 -7,0 z m 7,0 7,0 0,7 -7,0 z m 14,0 7,0 0,7 -7,0 z m 7,0 7,0 0,7 -7,0 z m 21,0 7,0 0,7 -7,0 z m 14,0 7,0 0,7 -7,0 z m 7,0 7,0 0,7 -7,0 z m 28,0 7,0 0,7 -7,0 z m 7,0 7,0 0,7 -7,0 z m 14,0 7,0 0,7 -7,0 z m 7,0 7,0 0,7 -7,0 z m 28,0 7,0 0,7 -7,0 z m 7,0 7,0 0,7 -7,0 z m 7,0 7,0 0,7 -7,0 z m 14,0 7,0 0,7 -7,0 z m 7,0 7,0 0,7 -7,0 z m 14,0 7,0 0,7 -7,0 z m -217,7 7,0 0,7 -7,0 z m 21,0 7,0 0,7 -7,0 z m 7,0 7,0 0,7 -7,0 z m 7,0 7,0 0,7 -7,0 z m 21,0 7,0 0,7 -7,0 z m 7,0 7,0 0,7 -7,0 z m 7,0 7,0 0,7 -7,0 z m 7,0 7,0 0,7 -7,0 z m 21,0 7,0 0,7 -7,0 z m 7,0 7,0 0,7 -7,0 z m 7,0 7,0 0,7 -7,0 z m 14,0 7,0 0,7 -7,0 z m 14,0 7,0 0,7 -7,0 z m 7,0 7,0 0,7 -7,0 z m 7,0 7,0 0,7 -7,0 z m 21,0 7,0 0,7 -7,0 z m 7,0 7,0 0,7 -7,0 z m 14,0 7,0 0,7 -7,0 z m 7,0 7,0 0,7 -7,0 z m 7,0 7,0 0,7 -7,0 z m -196,7 7,0 0,7 -7,0 z m 28,0 7,0 0,7 -7,0 z m 7,0 7,0 0,7 -7,0 z m 28,0 7,0 0,7 -7,0 z m 49,0 7,0 0,7 -7,0 z m 7,0 7,0 0,7 -7,0 z m 21,0 7,0 0,7 -7,0 z m 21,0 7,0 0,7 -7,0 z m 14,0 7,0 0,7 -7,0 z m 7,0 7,0 0,7 -7,0 z m 21,0 7,0 0,7 -7,0 z m -217,7 7,0 0,7 -7,0 z m 28,0 7,0 0,7 -7,0 z m 7,0 7,0 0,7 -7,0 z m 14,0 7,0 0,7 -7,0 z m 7,0 7,0 0,7 -7,0 z m 7,0 7,0 0,7 -7,0 z m 7,0 7,0 0,7 -7,0 z m 14,0 7,0 0,7 -7,0 z m 7,0 7,0 0,7 -7,0 z m 7,0 7,0 0,7 -7,0 z m 21,0 7,0 0,7 -7,0 z m 7,0 7,0 0,7 -7,0 z m 7,0 7,0 0,7 -7,0 z m 7,0 7,0 0,7 -7,0 z m 14,0 7,0 0,7 -7,0 z m 7,0 7,0 0,7 -7,0 z m 21,0 7,0 0,7 -7,0 z m 21,0 7,0 0,7 -7,0 z m 7,0 7,0 0,7 -7,0 z m 7,0 7,0 0,7 -7,0 z m 7,0 7,0 0,7 -7,0 z m -224,7 7,0 0,7 -7,0 z m 14,0 7,0 0,7 -7,0 z m 21,0 7,0 0,7 -7,0 z m 7,0 7,0 0,7 -7,0 z m 7,0 7,0 0,7 -7,0 z m 7,0 7,0 0,7 -7,0 z m 35,0 7,0 0,7 -7,0 z m 7,0 7,0 0,7 -7,0 z m 14,0 7,0 0,7 -7,0 z m 21,0 7,0 0,7 -7,0 z m 7,0 7,0 0,7 -7,0 z m 7,0 7,0 0,7 -7,0 z m 7,0 7,0 0,7 -7,0 z m 21,0 7,0 0,7 -7,0 z m 14,0 7,0 0,7 -7,0 z m 14,0 7,0 0,7 -7,0 z m 7,0 7,0 0,7 -7,0 z m 7,0 7,0 0,7 -7,0 z m -217,7 7,0 0,7 -7,0 z m 21,0 7,0 0,7 -7,0 z m 7,0 7,0 0,7 -7,0 z m 7,0 7,0 0,7 -7,0 z m 14,0 7,0 0,7 -7,0 z m 35,0 7,0 0,7 -7,0 z m 7,0 7,0 0,7 -7,0 z m 14,0 7,0 0,7 -7,0 z m 7,0 7,0 0,7 -7,0 z m 7,0 7,0 0,7 -7,0 z m 21,0 7,0 0,7 -7,0 z m 7,0 7,0 0,7 -7,0 z m 14,0 7,0 0,7 -7,0 z m 14,0 7,0 0,7 -7,0 z m 7,0 7,0 0,7 -7,0 z m 7,0 7,0 0,7 -7,0 z m 14,0 7,0 0,7 -7,0 z m 7,0 7,0 0,7 -7,0 z m -210,7 7,0 0,7 -7,0 z m 21,0 7,0 0,7 -7,0 z m 14,0 7,0 0,7 -7,0 z m 7,0 7,0 0,7 -7,0 z m 14,0 7,0 0,7 -7,0 z m 7,0 7,0 0,7 -7,0 z m 7,0 7,0 0,7 -7,0 z m 14,0 7,0 0,7 -7,0 z m 14,0 7,0 0,7 -7,0 z m 21,0 7,0 0,7 -7,0 z m 14,0 7,0 0,7 -7,0 z m 14,0 7,0 0,7 -7,0 z m 14,0 7,0 0,7 -7,0 z m 7,0 7,0 0,7 -7,0 z m 7,0 7,0 0,7 -7,0 z m 7,0 7,0 0,7 -7,0 z m 7,0 7,0 0,7 -7,0 z m 7,0 7,0 0,7 -7,0 z m 28,0 7,0 0,7 -7,0 z m -168,7 7,0 0,7 -7,0 z m 14,0 7,0 0,7 -7,0 z m 35,0 7,0 0,7 -7,0 z m 14,0 7,0 0,7 -7,0 z m 7,0 7,0 0,7 -7,0 z m 7,0 7,0 0,7 -7,0 z m 7,0 7,0 0,7 -7,0 z m 7,0 7,0 0,7 -7,0 z m 7,0 7,0 0,7 -7,0 z m 14,0 7,0 0,7 -7,0 z m 28,0 7,0 0,7 -7,0 z m 7,0 7,0 0,7 -7,0 z m 21,0 7,0 0,7 -7,0 z m -224,7 7,0 0,7 -7,0 z m 7,0 7,0 0,7 -7,0 z m 7,0 7,0 0,7 -7,0 z m 7,0 7,0 0,7 -7,0 z m 7,0 7,0 0,7 -7,0 z m 7,0 7,0 0,7 -7,0 z m 7,0 7,0 0,7 -7,0 z m 14,0 7,0 0,7 -7,0 z m 7,0 7,0 0,7 -7,0 z m 14,0 7,0 0,7 -7,0 z m 7,0 7,0 0,7 -7,0 z m 70,0 7,0 0,7 -7,0 z m 7,0 7,0 0,7 -7,0 z m 7,0 7,0 0,7 -7,0 z m 14,0 7,0 0,7 -7,0 z m 14,0 7,0 0,7 -7,0 z m 21,0 7,0 0,7 -7,0 z m -217,7 7,0 0,7 -7,0 z m 42,0 7,0 0,7 -7,0 z m 35,0 7,0 0,7 -7,0 z m 21,0 7,0 0,7 -7,0 z m 14,0 7,0 0,7 -7,0 z m 14,0 7,0 0,7 -7,0 z m 14,0 7,0 0,7 -7,0 z m 14,0 7,0 0,7 -7,0 z m 7,0 7,0 0,7 -7,0 z m 7,0 7,0 0,7 -7,0 z m 28,0 7,0 0,7 -7,0 z m 7,0 7,0 0,7 -7,0 z m 7,0 7,0 0,7 -7,0 z m 7,0 7,0 0,7 -7,0 z m 7,0 7,0 0,7 -7,0 z m -224,7 7,0 0,7 -7,0 z m 14,0 7,0 0,7 -7,0 z m 7,0 7,0 0,7 -7,0 z m 7,0 7,0 0,7 -7,0 z m 14,0 7,0 0,7 -7,0 z m 14,0 7,0 0,7 -7,0 z m 7,0 7,0 0,7 -7,0 z m 7,0 7,0 0,7 -7,0 z m 7,0 7,0 0,7 -7,0 z m 42,0 7,0 0,7 -7,0 z m 7,0 7,0 0,7 -7,0 z m 7,0 7,0 0,7 -7,0 z m 14,0 7,0 0,7 -7,0 z m 7,0 7,0 0,7 -7,0 z m 14,0 7,0 0,7 -7,0 z m 7,0 7,0 0,7 -7,0 z m 7,0 7,0 0,7 -7,0 z m 7,0 7,0 0,7 -7,0 z m 7,0 7,0 0,7 -7,0 z m 28,0 7,0 0,7 -7,0 z m -224,7 7,0 0,7 -7,0 z m 14,0 7,0 0,7 -7,0 z m 7,0 7,0 0,7 -7,0 z m 7,0 7,0 0,7 -7,0 z m 14,0 7,0 0,7 -7,0 z m 14,0 7,0 0,7 -7,0 z m 7,0 7,0 0,7 -7,0 z m 7,0 7,0 0,7 -7,0 z m 14,0 7,0 0,7 -7,0 z m 7,0 7,0 0,7 -7,0 z m 7,0 7,0 0,7 -7,0 z m 7,0 7,0 0,7 -7,0 z m 21,0 7,0 0,7 -7,0 z m 7,0 7,0 0,7 -7,0 z m 7,0 7,0 0,7 -7,0 z m 7,0 7,0 0,7 -7,0 z m 7,0 7,0 0,7 -7,0 z m 14,0 7,0 0,7 -7,0 z m 7,0 7,0 0,7 -7,0 z m 21,0 7,0 0,7 -7,0 z m 7,0 7,0 0,7 -7,0 z m 14,0 7,0 0,7 -7,0 z m -217,7 7,0 0,7 -7,0 z m 14,0 7,0 0,7 -7,0 z m 7,0 7,0 0,7 -7,0 z m 7,0 7,0 0,7 -7,0 z m 14,0 7,0 0,7 -7,0 z m 14,0 7,0 0,7 -7,0 z m 7,0 7,0 0,7 -7,0 z m 7,0 7,0 0,7 -7,0 z m 21,0 7,0 0,7 -7,0 z m 7,0 7,0 0,7 -7,0 z m 7,0 7,0 0,7 -7,0 z m 7,0 7,0 0,7 -7,0 z m 42,0 7,0 0,7 -7,0 z m 14,0 7,0 0,7 -7,0 z m 7,0 7,0 0,7 -7,0 z m 7,0 7,0 0,7 -7,0 z m 28,0 7,0 0,7 -7,0 z m -210,7 7,0 0,7 -7,0 z m 42,0 7,0 0,7 -7,0 z m 14,0 7,0 0,7 -7,0 z m 14,0 7,0 0,7 -7,0 z m 14,0 7,0 0,7 -7,0 z m 7,0 7,0 0,7 -7,0 z m 14,0 7,0 0,7 -7,0 z m 7,0 7,0 0,7 -7,0 z m 7,0 7,0 0,7 -7,0 z m 14,0 7,0 0,7 -7,0 z m 28,0 7,0 0,7 -7,0 z m 49,0 7,0 0,7 -7,0 z m -210,7 7,0 0,7 -7,0 z m 7,0 7,0 0,7 -7,0 z m 7,0 7,0 0,7 -7,0 z m 7,0 7,0 0,7 -7,0 z m 7,0 7,0 0,7 -7,0 z m 7,0 7,0 0,7 -7,0 z m 7,0 7,0 0,7 -7,0 z m 14,0 7,0 0,7 -7,0 z m 7,0 7,0 0,7 -7,0 z m 21,0 7,0 0,7 -7,0 z m 14,0 7,0 0,7 -7,0 z m 49,0 7,0 0,7 -7,0 z m 14,0 7,0 0,7 -7,0 z m 7,0 7,0 0,7 -7,0 z m 7,0 7,0 0,7 -7,0 z m 7,0 7,0 0,7 -7,0 z m 14,0 7,0 0,7 -7,0 z m 21,0 7,0 0,7 -7,0 z"
             id="path3982" />
        </g>
      </g>
      <text
         sodipodi:linespacing="125%"
         id="text3052"
         y="890.4931"
         x="200.67712"
         style="font-size:16.30796051px;font-style:normal;font-weight:normal;line-height:125%;letter-spacing:0px;word-spacing:0px;fill:#000000;fill-opacity:1;stroke:none;font-family:Sans"
         xml:space="preserve"><tspan
           style="font-style:normal;font-variant:normal;font-weight:bold;font-stretch:normal;font-family:FreeMono;-inkscape-font-specification:FreeMono Bold"
           y="890.4931"
           x="200.67712"
           id="tspan3054"
           sodipodi:role="line">http://bit.ly/enlpoa</tspan></text>
      <text
         sodipodi:linespacing="125%"
         id="text3056"
         y="599.14111"
         x="299.92807"
         style="font-size:16.30796051px;font-style:normal;font-weight:normal;text-align:center;line-height:125%;letter-spacing:0px;word-spacing:0px;text-anchor:middle;fill:#000000;fill-opacity:1;stroke:none;font-family:Sans"
         xml:space="preserve"><tspan
           style="font-style:normal;font-variant:normal;font-weight:bold;font-stretch:normal;font-family:Sans;-inkscape-font-specification:Sans Bold"
           y="599.14111"
           x="299.92807"
           id="tspan3058"
           sodipodi:role="line">Venha</tspan><tspan
           style="font-style:normal;font-variant:normal;font-weight:bold;font-stretch:normal;font-family:Sans;-inkscape-font-specification:Sans Bold"
           id="tspan3060"
           y="619.52606"
           x="299.92807"
           sodipodi:role="line">Jogar nesse time!</tspan></text>
    </g>
  </g>
</svg>
